<?xml version="1.0" encoding="utf-8"?>
<!DOCTYPE svg PUBLIC "-//W3C//DTD SVG 1.0//EN"    "http://www.w3.org/TR/2001/REC-SVG-20010904/DTD/svg10.dtd" [
<!ENTITY ns_svg "http://www.w3.org/2000/svg">
<!ENTITY ns_xlink "http://www.w3.org/1999/xlink">
]>
<svg  xmlns="&ns_svg;" xmlns:xlink="&ns_xlink;" width="32" height="32" xml:space="preserve">
	<g>
		<line style="fill:none;" x1="6.443" y1="6.042" x2="26.102" y2="25.698"/>
		<path style="fill:#E52629;" d="M5.301,7.179c1.492,1.491,2.983,2.982,4.474,4.474c2.926,2.926,5.852,5.851,8.777,8.777
		c2.038,2.036,4.075,4.073,6.112,6.11c0.099,0.099,0.197,0.197,0.297,0.296c0.621,0.621,1.664,0.62,2.285,0
		c0.622-0.62,0.62-1.655,0-2.275c-1.492-1.491-2.983-2.982-4.477-4.474c-2.924-2.927-5.85-5.852-8.775-8.777
		C11.958,9.273,9.919,7.236,7.882,5.2C7.783,5.1,7.685,5.002,7.586,4.903c-0.622-0.622-1.664-0.619-2.285,0
		C4.678,5.524,4.68,6.558,5.301,7.179L5.301,7.179z"/>
		<ellipse style="fill:none;" cx="15.973" cy="15.961" rx="14.366" ry="14.374"/>
		<path style="fill:#E52629;" d="M31.956,15.961c-0.011-3.12-0.924-6.23-2.664-8.831c-1.683-2.518-4.078-4.584-6.872-5.787
		c-3.053-1.313-6.353-1.668-9.621-1.046C9.791,0.87,6.976,2.418,4.792,4.541C0.269,8.937-1.255,15.933,1.096,21.787
		c1.189,2.962,3.165,5.447,5.769,7.303c2.533,1.807,5.644,2.764,8.745,2.852c6.246,0.173,12.248-3.562,14.84-9.221
		C31.426,20.592,31.948,18.304,31.956,15.961c0.002-0.877-0.739-1.609-1.617-1.609c-0.883,0-1.612,0.731-1.616,1.609
		c0,0.361-0.013,0.722-0.039,1.081c-0.013,0.178-0.029,0.356-0.05,0.533c-0.01,0.088-0.021,0.177-0.032,0.264
		c0.071-0.551,0.014-0.11-0.006,0.01c-0.113,0.717-0.288,1.423-0.508,2.114c-0.105,0.327-0.225,0.649-0.354,0.968
		c-0.041,0.102-0.172,0.4,0.029-0.068c-0.033,0.078-0.068,0.156-0.102,0.233c-0.082,0.183-0.17,0.361-0.26,0.538
		c-0.317,0.631-0.685,1.234-1.092,1.813c-0.097,0.138-0.197,0.274-0.3,0.407c0.338-0.444-0.032,0.036-0.114,0.138
		c-0.232,0.282-0.478,0.552-0.731,0.814c-0.232,0.245-0.475,0.478-0.726,0.703c-0.125,0.113-0.253,0.223-0.382,0.331
		c-0.106,0.092-0.649,0.515-0.199,0.17c-0.559,0.429-1.153,0.812-1.769,1.155c-0.297,0.165-0.603,0.316-0.91,0.46
		c-0.12,0.056-0.687,0.297-0.163,0.078c-0.185,0.077-0.371,0.147-0.558,0.217c-0.679,0.249-1.377,0.44-2.084,0.584
		c-0.172,0.035-0.345,0.065-0.519,0.094c-0.087,0.014-0.174,0.027-0.262,0.039c0.525-0.076,0.193-0.025,0.078-0.011
		c-0.384,0.047-0.77,0.073-1.158,0.09c-0.748,0.03-1.498-0.004-2.243-0.09c-0.114-0.013-0.446-0.062,0.078,0.011
		c-0.087-0.011-0.173-0.025-0.261-0.039c-0.174-0.028-0.346-0.06-0.519-0.094c-0.369-0.072-0.735-0.164-1.099-0.265
		c-0.332-0.094-0.66-0.202-0.984-0.319c-0.162-0.059-0.321-0.12-0.48-0.185c-0.301-0.121,0.369,0.158,0.071,0.03
		c-0.105-0.045-0.208-0.093-0.312-0.141c-0.644-0.295-1.261-0.643-1.852-1.029c-0.283-0.185-0.558-0.382-0.827-0.586
		c0.447,0.339-0.034-0.033-0.135-0.115c-0.152-0.126-0.3-0.255-0.446-0.386C6.983,25.042,6.5,24.53,6.05,23.992
		c-0.083-0.101-0.456-0.581-0.115-0.138c-0.103-0.133-0.202-0.271-0.3-0.407c-0.212-0.299-0.412-0.607-0.6-0.922
		c-0.176-0.29-0.338-0.588-0.492-0.892c-0.078-0.151-0.151-0.306-0.223-0.459c-0.036-0.079-0.07-0.156-0.105-0.234
		c-0.115-0.259,0.161,0.393-0.004-0.01c-0.272-0.665-0.487-1.354-0.656-2.054c-0.082-0.34-0.148-0.684-0.206-1.028
		c-0.015-0.088-0.027-0.176-0.04-0.262c0.076,0.521,0.025,0.19,0.012,0.077c-0.025-0.208-0.043-0.414-0.059-0.622
		c-0.059-0.748-0.052-1.501,0.006-2.25c0.014-0.178,0.033-0.355,0.053-0.532c0.013-0.114,0.061-0.446-0.012,0.077
		c0.012-0.087,0.025-0.175,0.04-0.262c0.059-0.375,0.137-0.746,0.226-1.115c0.168-0.698,0.396-1.382,0.668-2.047
		c0.123-0.3-0.159,0.368-0.029,0.07c0.034-0.078,0.07-0.155,0.105-0.233c0.071-0.155,0.146-0.307,0.223-0.459
		C4.708,9.96,4.889,9.64,5.079,9.325c0.174-0.29,0.362-0.572,0.557-0.849c0.097-0.138,0.198-0.273,0.3-0.408
		c-0.341,0.45,0.079-0.094,0.168-0.201c0.449-0.539,0.942-1.041,1.466-1.51c0.125-0.112,0.253-0.221,0.383-0.33
		c0.1-0.083,0.58-0.457,0.135-0.116C8.378,5.689,8.679,5.48,8.985,5.28c0.592-0.387,1.217-0.724,1.859-1.019
		c0.077-0.035,0.155-0.07,0.234-0.104c0.297-0.129-0.372,0.154-0.071,0.03c0.159-0.065,0.319-0.125,0.48-0.185
		c0.351-0.128,0.708-0.241,1.068-0.342c0.335-0.094,0.675-0.173,1.015-0.243c0.173-0.034,0.345-0.065,0.519-0.094
		c0.086-0.014,0.174-0.026,0.261-0.04C13.799,3.365,14.239,3.3,14.36,3.287c0.746-0.086,1.498-0.107,2.247-0.077
		c0.356,0.015,0.713,0.045,1.066,0.086c0.115,0.013,0.447,0.062-0.078-0.012c0.088,0.013,0.175,0.026,0.262,0.04
		c0.202,0.032,0.403,0.071,0.604,0.111c0.707,0.144,1.401,0.347,2.078,0.596c0.16,0.059,0.319,0.123,0.478,0.188
		c-0.525-0.216,0.043,0.022,0.163,0.078c0.335,0.154,0.661,0.323,0.984,0.502c0.295,0.165,0.584,0.342,0.868,0.527
		c0.142,0.092,0.281,0.188,0.419,0.286c0.113,0.08,0.662,0.499,0.214,0.151c0.555,0.431,1.074,0.906,1.561,1.413
		c0.232,0.243,0.455,0.497,0.671,0.755c0.082,0.101,0.456,0.581,0.114,0.137c0.119,0.156,0.234,0.316,0.35,0.477
		c0.406,0.578,0.764,1.189,1.081,1.82c0.077,0.152,0.149,0.306,0.221,0.462c0.035,0.078,0.068,0.155,0.102,0.234
		c-0.203-0.467-0.07-0.171-0.029-0.069c0.142,0.345,0.265,0.697,0.379,1.052c0.222,0.692,0.382,1.402,0.496,2.119
		c0.019,0.113,0.063,0.444-0.008-0.079c0.014,0.088,0.022,0.177,0.032,0.264c0.021,0.178,0.037,0.355,0.05,0.533
		c0.028,0.359,0.039,0.721,0.039,1.081c0.004,0.877,0.733,1.609,1.616,1.609C31.217,17.571,31.958,16.838,31.956,15.961z"/>
	</g>
</svg>
